<svg width="54" height="54" viewBox="0 0 54 54" fill="none" xmlns="http://www.w3.org/2000/svg">
<path d="M49.5 30.6022H48.6V22.5021C48.5986 21.309 48.124 20.1652 47.2804 19.3216C46.4368 18.478 45.293 18.0034 44.1 18.002H35.1C34.8613 18.002 34.6324 18.0968 34.4636 18.2656C34.2948 18.4344 34.2 18.6633 34.2 18.902V37.8023H32.4V35.1023C32.4 34.8636 32.3052 34.6346 32.1364 34.4659C31.9676 34.2971 31.7387 34.2022 31.5 34.2022H30.6V8.07847C31.1155 7.69357 31.5422 7.20226 31.8511 6.63789C32.16 6.07351 32.3438 5.44929 32.3901 4.80759C32.4364 4.16589 32.3441 3.52173 32.1195 2.91885C31.8948 2.31598 31.5431 1.76849 31.0882 1.31356C30.6333 0.858627 30.0858 0.506902 29.4829 0.282262C28.8801 0.0576212 28.2359 -0.0346767 27.5942 0.0116341C26.9525 0.0579449 26.3283 0.24178 25.764 0.55066C25.1996 0.85954 24.7083 1.28623 24.3234 1.80177H9.9C9.6613 1.80177 9.43239 1.8966 9.2636 2.06538C9.09482 2.23417 9 2.46309 9 2.70179V6.30184C9 6.54054 9.09482 6.76946 9.2636 6.93824C9.43239 7.10703 9.6613 7.20185 9.9 7.20185H10.8V9.90189C10.8 10.1406 10.8948 10.3695 11.0636 10.5383C11.2324 10.7071 11.4613 10.8019 11.7 10.8019H12.6V19.802C12.6 20.0407 12.6948 20.2697 12.8636 20.4384C13.0324 20.6072 13.2613 20.7021 13.5 20.7021C14.034 20.7021 14.556 20.8604 15 21.1571C15.4441 21.4538 15.7901 21.8755 15.9945 22.3688C16.1988 22.8622 16.2523 23.4051 16.1481 23.9288C16.0439 24.4526 15.7868 24.9337 15.4092 25.3113C15.0316 25.6889 14.5505 25.9461 14.0267 26.0503C13.503 26.1544 12.9601 26.101 12.4668 25.8966C11.9734 25.6922 11.5517 25.3462 11.255 24.9022C10.9584 24.4581 10.8 23.9361 10.8 23.4021H9C9.00017 24.2535 9.24189 25.0875 9.69708 25.807C10.1523 26.5265 10.8023 27.1022 11.5715 27.4671C12.3408 27.832 13.1978 27.9711 14.043 27.8684C14.8882 27.7656 15.6869 27.4252 16.3464 26.8866C17.0059 26.3481 17.499 25.6334 17.7685 24.8258C18.0381 24.0182 18.073 23.1506 17.8692 22.3239C17.6653 21.4972 17.2312 20.7453 16.6171 20.1556C16.003 19.5658 15.2342 19.1623 14.4 18.992V10.8019H15.3C15.5387 10.8019 15.7676 10.7071 15.9364 10.5383C16.1052 10.3695 16.2 10.1406 16.2 9.90189V7.20185H24.3234C24.5737 7.53315 24.8687 7.82816 25.2 8.07847V34.2022H2.7C2.46131 34.2022 2.23239 34.2971 2.0636 34.4659C1.89482 34.6346 1.8 34.8636 1.8 35.1023V37.8023H0.9C0.661305 37.8023 0.432387 37.8971 0.263604 38.0659C0.0948211 38.2347 0 38.4636 0 38.7023V47.7024C0 47.9411 0.0948211 48.1701 0.263604 48.3389C0.432387 48.5076 0.661305 48.6025 0.9 48.6025H3.672C3.88719 50.1009 4.63537 51.4715 5.7793 52.4629C6.92324 53.4543 8.38625 54 9.9 54C11.4138 54 12.8768 53.4543 14.0207 52.4629C15.1646 51.4715 15.9128 50.1009 16.128 48.6025H18.072C18.2872 50.1009 19.0354 51.4715 20.1793 52.4629C21.3232 53.4543 22.7862 54 24.3 54C25.8137 54 27.2768 53.4543 28.4207 52.4629C29.5646 51.4715 30.3128 50.1009 30.528 48.6025H36.972C37.1872 50.1009 37.9354 51.4715 39.0793 52.4629C40.2232 53.4543 41.6862 54 43.2 54C44.7137 54 46.1768 53.4543 47.3207 52.4629C48.4646 51.4715 49.2128 50.1009 49.428 48.6025H49.5C50.693 48.601 51.8368 48.1265 52.6804 47.2828C53.524 46.4392 53.9986 45.2954 54 44.1024V35.1023C53.9986 33.9092 53.524 32.7654 52.6804 31.9218C51.8368 31.0782 50.693 30.6036 49.5 30.6022ZM44.1 19.802C44.8161 19.802 45.5028 20.0865 46.0092 20.5929C46.5155 21.0992 46.8 21.786 46.8 22.5021V30.6022H36V19.802H44.1ZM27.9 1.80177C28.434 1.80177 28.956 1.96013 29.4 2.25681C29.8441 2.5535 30.1901 2.97518 30.3945 3.46855C30.5988 3.96192 30.6523 4.50481 30.5481 5.02856C30.4439 5.55232 30.1868 6.03342 29.8092 6.41103C29.4316 6.78864 28.9505 7.04579 28.4267 7.14997C27.903 7.25415 27.3601 7.20068 26.8668 6.99632C26.3734 6.79196 25.9517 6.44589 25.655 6.00187C25.3584 5.55786 25.2 5.03583 25.2 4.50181C25.2 3.78572 25.4845 3.09895 25.9908 2.5926C26.4972 2.08624 27.1839 1.80177 27.9 1.80177ZM14.4 9.00188H12.6V7.20185H14.4V9.00188ZM10.8 5.40183V3.6018H23.49C23.3688 4.19568 23.3688 4.80794 23.49 5.40183H10.8ZM27 8.91188C27.5939 9.0331 28.2061 9.0331 28.8 8.91188V34.2022H27V8.91188ZM3.6 36.0023H30.6V37.8023H3.6V36.0023ZM1.8 39.6023H34.2V46.8024H30.528C30.3128 45.304 29.5646 43.9334 28.4207 42.942C27.2768 41.9506 25.8137 41.4049 24.3 41.4049C22.7862 41.4049 21.3232 41.9506 20.1793 42.942C19.0354 43.9334 18.2872 45.304 18.072 46.8024H16.128C15.9128 45.304 15.1646 43.9334 14.0207 42.942C12.8768 41.9506 11.4138 41.4049 9.9 41.4049C8.38625 41.4049 6.92324 41.9506 5.7793 42.942C4.63537 43.9334 3.88719 45.304 3.672 46.8024H1.8V39.6023ZM9.9 52.2025C9.00998 52.2025 8.13995 51.9386 7.39993 51.4441C6.65991 50.9496 6.08314 50.2468 5.74254 49.4245C5.40195 48.6023 5.31283 47.6975 5.48647 46.8245C5.6601 45.9516 6.08868 45.1498 6.71802 44.5204C7.34736 43.8911 8.14918 43.4625 9.02209 43.2888C9.89501 43.1152 10.7998 43.2043 11.6221 43.5449C12.4443 43.8855 13.1471 44.4623 13.6416 45.2023C14.1361 45.9424 14.4 46.8124 14.4 47.7024C14.3986 48.8955 13.924 50.0393 13.0804 50.8829C12.2368 51.7265 11.093 52.2011 9.9 52.2025ZM24.3 52.2025C23.41 52.2025 22.54 51.9386 21.7999 51.4441C21.0599 50.9496 20.4831 50.2468 20.1425 49.4245C19.8019 48.6023 19.7128 47.6975 19.8865 46.8245C20.0601 45.9516 20.4887 45.1498 21.118 44.5204C21.7474 43.8911 22.5492 43.4625 23.4221 43.2888C24.295 43.1152 25.1998 43.2043 26.0221 43.5449C26.8443 43.8855 27.5471 44.4623 28.0416 45.2023C28.5361 45.9424 28.8 46.8124 28.8 47.7024C28.7986 48.8955 28.324 50.0393 27.4804 50.8829C26.6368 51.7265 25.493 52.2011 24.3 52.2025ZM43.2 52.2025C42.31 52.2025 41.44 51.9386 40.6999 51.4441C39.9599 50.9496 39.3831 50.2468 39.0425 49.4245C38.7019 48.6023 38.6128 47.6975 38.7865 46.8245C38.9601 45.9516 39.3887 45.1498 40.018 44.5204C40.6474 43.8911 41.4492 43.4625 42.3221 43.2888C43.195 43.1152 44.0998 43.2043 44.9221 43.5449C45.7443 43.8855 46.4471 44.4623 46.9416 45.2023C47.4361 45.9424 47.7 46.8124 47.7 47.7024C47.6986 48.8955 47.224 50.0393 46.3804 50.8829C45.5368 51.7265 44.393 52.2011 43.2 52.2025ZM52.2 44.1024C52.2 44.8185 51.9155 45.5053 51.4092 46.0116C50.9028 46.518 50.2161 46.8024 49.5 46.8024H49.428C49.2128 45.304 48.4646 43.9334 47.3207 42.942C46.1768 41.9506 44.7137 41.4049 43.2 41.4049C41.6862 41.4049 40.2232 41.9506 39.0793 42.942C37.9354 43.9334 37.1872 45.304 36.972 46.8024H36V32.4022H49.5C50.2161 32.4022 50.9028 32.6867 51.4092 33.193C51.9155 33.6994 52.2 34.3862 52.2 35.1023V44.1024Z" fill="black"/>
<path d="M28.8 3.60182H27V5.40185H28.8V3.60182Z" fill="black"/>
<path d="M36 19H43C45.2091 19 47 20.7909 47 23V31H36V19Z" fill="#18C6EC" fill-opacity="0.5"/>
</svg>
