<svg width="54" height="54" viewBox="0 0 54 54" fill="none" xmlns="http://www.w3.org/2000/svg">
<g clip-path="url(#clip0)">
<rect x="30.2576" y="36.1213" width="8.44795" height="25.3016" transform="rotate(-45 30.2576 36.1213)" fill="#18C6EC" fill-opacity="0.5"/>
<rect x="31.2139" y="39.7266" width="1.87342" height="19.9935" transform="rotate(-45 31.2139 39.7266)" fill="#18C6EC" fill-opacity="0.5"/>
<rect x="38.9243" y="32.8423" width="1.26406" height="19.9935" transform="rotate(-45 38.9243 32.8423)" fill="#18C6EC" fill-opacity="0.5"/>
<rect x="35.425" y="26.6827" width="3.02374" height="11.9989" transform="rotate(45 35.425 26.6827)" fill="#18C6EC" fill-opacity="0.5"/>
<path d="M0.170923 4.95354L3.77229 11.2556C3.89377 11.4685 4.0971 11.6226 4.33487 11.6822L7.69476 12.5222L19.2185 24.0459L20.4918 22.773L8.78769 11.0693C8.67251 10.9537 8.52807 10.8719 8.36993 10.8322L5.14151 10.0223L2.07531 4.65354L4.70411 2.02474L10.0751 5.0939L10.8854 8.32232C10.9247 8.48083 11.0069 8.62564 11.1221 8.74082L22.8261 20.4449L24.0991 19.1716L12.5753 7.6479L11.7354 4.28985C11.6757 4.05171 11.5217 3.84801 11.3087 3.72617L5.00633 0.125167C4.65486 -0.0748263 4.21265 -0.0155689 3.92599 0.269978L0.324992 3.87135C0.0353712 4.15615 -0.0275898 4.5991 0.170923 4.95354Z" fill="black"/>
<path d="M37.6012 17.7435L17.7948 37.5503L16.5215 36.277L36.3283 16.4706L37.6012 17.7435Z" fill="black"/>
<path d="M14.3281 38.251C14.1651 37.9799 13.8725 37.8144 13.5562 37.8144H8.15456C7.83864 37.8144 7.54569 37.9799 7.3831 38.251L4.68207 42.7524C4.5106 43.0376 4.5106 43.3942 4.68207 43.6798L7.3831 48.1811C7.54569 48.4519 7.83864 48.6178 8.15456 48.6178H13.5562C13.8725 48.6178 14.1651 48.4519 14.3281 48.1811L17.0287 43.6798C17.2002 43.3942 17.2002 43.0376 17.0287 42.7524L14.3281 38.251ZM13.047 46.8171H8.66417L6.5035 43.2161L8.66417 39.6147H13.047L15.2077 43.2161L13.047 46.8171Z" fill="black"/>
<path d="M46.6046 45.2802L45.3313 46.5535L36.3286 37.5508L37.6015 36.2775L46.6046 45.2802Z" fill="black"/>
<path d="M43.2669 21.609C49.2131 21.629 54.0499 16.8247 54.0699 10.8786C54.0729 9.97342 53.9618 9.07196 53.7392 8.19458C53.6192 7.71201 53.1307 7.41831 52.6481 7.53831C52.4896 7.57794 52.3452 7.65979 52.2296 7.77497L46.6254 13.3755L42.1788 11.8937L40.6959 7.44831L46.3002 1.84293C46.6516 1.49109 46.6513 0.921107 46.2994 0.569637C46.1835 0.453715 46.0376 0.371495 45.878 0.332237C40.1115 -1.12809 34.2535 2.36254 32.7932 8.12866C32.5714 9.00345 32.4606 9.90268 32.4636 10.8052C32.4658 11.5141 32.5388 12.2208 32.6825 12.9148L12.9657 32.6312C12.2716 32.4879 11.565 32.4149 10.8565 32.4123C4.88962 32.4123 0.0527344 37.2492 0.0527344 43.2161C0.0527344 49.1826 4.88962 54.0194 10.8565 54.0194C16.823 54.0194 21.6598 49.1826 21.6598 43.2161C21.6576 42.5072 21.5843 41.8006 21.441 41.1065L26.1612 36.3863L28.2256 38.4507C28.5774 38.8021 29.147 38.8021 29.4989 38.4507L29.9488 38.0003C30.3436 37.6081 30.9818 37.6081 31.3766 38.0003C31.771 38.3936 31.7717 39.0321 31.3784 39.4266C31.3781 39.4269 31.3773 39.4277 31.3766 39.4284L30.9266 39.8784C30.5751 40.2299 30.5751 40.7999 30.9266 41.1513L41.6663 51.891C44.491 54.7416 49.0916 54.7624 51.9422 51.9377C54.7925 49.1129 54.8132 44.512 51.9885 41.6617C51.9733 41.6461 51.9578 41.6306 51.9422 41.615L41.2026 30.8757C40.8511 30.5243 40.2811 30.5243 39.9296 30.8757L39.4797 31.3257C39.0845 31.7183 38.4467 31.7183 38.0515 31.3257C37.6575 30.9324 37.6564 30.2939 38.0497 29.8998C38.0504 29.8991 38.0512 29.8987 38.0515 29.898L38.5019 29.4476C38.8534 29.0962 38.8534 28.5262 38.5019 28.1747L36.4375 26.1103L41.1577 21.3901C41.8518 21.5334 42.5584 21.6068 43.2669 21.609ZM46.8042 52.2191C46.1502 52.218 45.5017 52.0999 44.8895 51.8699L51.9207 44.8383C52.9818 47.6608 51.5541 50.8088 48.7316 51.8699C48.1157 52.1014 47.4627 52.2199 46.8042 52.2191ZM36.6049 28.8202C35.6079 30.0095 35.7642 31.782 36.9534 32.7786C37.9986 33.6545 39.5219 33.6538 40.5659 32.776L50.6693 42.8883C50.7789 42.9983 50.8815 43.1142 50.9808 43.232L43.2832 50.9295C43.1651 50.8307 43.0492 50.7281 42.9392 50.6181L32.828 40.5062C33.825 39.3169 33.6687 37.5444 32.4795 36.5478C31.4343 35.6715 29.9107 35.6726 28.8666 36.55L27.4263 35.1097L35.1642 27.3832L36.6049 28.8202ZM40.2404 19.7653L19.8169 40.1847C19.5929 40.4084 19.5029 40.7332 19.5792 41.0402C20.8143 45.8908 17.8833 50.8244 13.0323 52.0591C8.18174 53.2943 3.24819 50.3633 2.01304 45.5123C0.778267 40.6617 3.70929 35.7282 8.56025 34.493C10.0276 34.1197 11.565 34.1197 13.0323 34.493C13.3394 34.5682 13.6634 34.4782 13.8879 34.2556L34.3065 13.8359C34.5302 13.6122 34.6202 13.2874 34.5431 12.9807C33.3165 8.18681 36.2083 3.30622 41.0022 2.07922C41.9081 1.84775 42.8451 1.75886 43.7784 1.81701L39.0293 6.56797C38.7882 6.8087 38.7038 7.16536 38.8115 7.48868L40.6118 12.8907C40.7018 13.1592 40.9129 13.3703 41.1818 13.4596L46.5839 15.2603C46.9068 15.3681 47.2635 15.284 47.5046 15.0433L52.2537 10.2941C52.2644 10.466 52.27 10.636 52.27 10.8052C52.2952 15.7521 48.3057 19.7827 43.3588 19.8083C42.594 19.812 41.8318 19.7179 41.0911 19.5283C40.7841 19.4516 40.4593 19.5413 40.2356 19.765H40.2404V19.7653Z" fill="black"/>
</g>
<defs>
<clipPath id="clip0">
<rect width="54" height="54" fill="white"/>
</clipPath>
</defs>
</svg>
