<svg width="54" height="54" viewBox="0 0 54 54" fill="none" xmlns="http://www.w3.org/2000/svg">
<rect x="8" y="43" width="38" height="9" fill="#FFDF49" fill-opacity="0.5"/>
<path fill-rule="evenodd" clip-rule="evenodd" d="M7.36364 24H1.22727C0.901785 24 0.589633 24.1581 0.359478 24.4394C0.129323 24.7207 1.58664e-05 25.1022 0 25.5V44.3478C0.00165333 46.1114 0.575613 47.8023 1.59596 49.0494C2.61632 50.2965 3.99973 50.998 5.44273 51H6.34749C6.60199 51.8767 7.07219 52.6356 7.69358 53.1727C8.31496 53.7098 43.4207 53.9988 44.1818 54C44.9429 53.9988 45.685 53.7098 46.3064 53.1727C46.9278 52.6356 47.398 51.8767 47.6525 51H48.5573C50.0003 50.998 51.3837 50.2965 52.404 49.0494C53.4244 47.8023 53.9983 46.1114 54 44.3478V25.5C54 25.1022 53.8707 24.7207 53.6405 24.4394C53.4104 24.1581 53.0982 24 52.7727 24H46.6364C46.3109 24 45.9987 24.1581 45.7686 24.4394C45.5384 24.7207 45.4091 25.1022 45.4091 25.5V40.758C45.015 40.5871 44.6 40.4998 44.1818 40.5H42.9545V12C42.9516 8.8185 41.9163 5.76833 40.0756 3.51867C38.235 1.26901 35.7394 0.00357663 33.1364 0H20.8636C18.2606 0.00357663 15.765 1.26901 13.9244 3.51867C12.0837 5.76833 11.0484 8.8185 11.0455 12V40.5H9.81818C9.40004 40.4998 8.98495 40.5871 8.59091 40.758V25.5C8.59089 25.1022 8.46159 24.7207 8.23143 24.4394C8.00128 24.1581 7.68912 24 7.36364 24ZM2.45455 27V44.3478C2.45545 45.3161 2.77057 46.2444 3.33077 46.9291C3.89096 47.6137 4.65049 47.9989 5.44273 48H6.13636V27H2.45455ZM51.5455 27H47.8636V48H48.5573C49.3495 47.9989 50.109 47.6137 50.6692 46.9291C51.2294 46.2444 51.5445 45.3161 51.5455 44.3478V27ZM29.4545 22.5H25.7727C25.122 22.5009 24.4981 22.8173 24.0379 23.3797C23.5778 23.9421 23.3189 24.7046 23.3182 25.5V40.5H31.9091V25.5C31.9083 24.7046 31.6495 23.9421 31.1893 23.3797C30.7292 22.8173 30.1053 22.5009 29.4545 22.5ZM40.5 22.5H33.7032C34.1364 23.4111 34.3643 24.4462 34.3636 25.5V40.5H40.5V22.5ZM15.6592 5.63905C14.2788 7.32629 13.5022 9.61389 13.5 12V40.5H20.8636V25.5C20.863 24.4462 21.0909 23.4111 21.5241 22.5H15.9545V19.5H21.5241C21.0909 18.5889 20.863 17.5538 20.8636 16.5V9H23.3182V16.5C23.3189 17.2954 23.5778 18.0579 24.0379 18.6203C24.4981 19.1827 25.122 19.4991 25.7727 19.5H29.4545C30.1053 19.4991 30.7292 19.1827 31.1893 18.6203C31.6495 18.0579 31.9083 17.2954 31.9091 16.5V9H34.3636V16.5C34.3643 17.5538 34.1364 18.5889 33.7032 19.5H40.5V12C40.4978 9.61389 39.7212 7.32629 38.3408 5.63905C36.9603 3.95182 35.0886 3.00273 33.1364 3H20.8636C18.9114 3.00273 17.0397 3.95182 15.6592 5.63905ZM44.1818 43.5H9.81818C9.4928 43.5005 9.18086 43.6586 8.95078 43.9398C8.7207 44.2211 8.59128 44.6023 8.59091 45V49.5C8.59128 49.8977 8.7207 50.2789 8.95078 50.5602C9.18086 50.8414 9.4928 50.9995 9.81818 51H44.1818C44.5072 50.9995 44.8191 50.8414 45.0492 50.5602C45.2793 50.2789 45.4087 49.8977 45.4091 49.5V45C45.4087 44.6023 45.2793 44.2211 45.0492 43.9398C44.8191 43.6586 44.5072 43.5005 44.1818 43.5Z" fill="black"/>
</svg>
