<svg width="54" height="54" viewBox="0 0 54 54" fill="none" xmlns="http://www.w3.org/2000/svg">
<ellipse cx="27" cy="25.5" rx="15" ry="15.5" fill="#FFDF49" fill-opacity="0.5"/>
<path d="M27 8C17.626 8 10 15.626 10 25C10 32.112 14.391 38.412 21 40.9V50C21 50.553 21.447 51 22 51H23V53C23 53.553 23.447 54 24 54H30C30.553 54 31 53.553 31 53V51H32C32.553 51 33 50.553 33 50V40.9C39.609 38.412 44 32.112 44 25C44 15.626 36.374 8 27 8ZM30 49C29.447 49 29 49.447 29 50V52H25V50C25 49.447 24.553 49 24 49H23V44H31V49H30ZM31.688 39.242C31.277 39.377 31 39.761 31 40.192V42H23V40.192C23 39.76 22.723 39.377 22.312 39.242C16.145 37.214 12 31.49 12 25C12 16.729 18.729 10 27 10C35.271 10 42 16.729 42 25C42 31.49 37.855 37.214 31.688 39.242Z" fill="black"/>
<path d="M27 6C27.553 6 28 5.553 28 5V1C28 0.447 27.553 0 27 0C26.447 0 26 0.447 26 1V5C26 5.553 26.447 6 27 6Z" fill="black"/>
<path d="M51 24H47C46.447 24 46 24.447 46 25C46 25.553 46.447 26 47 26H51C51.553 26 52 25.553 52 25C52 24.447 51.553 24 51 24Z" fill="black"/>
<path d="M7 24H3C2.447 24 2 24.447 2 25C2 25.553 2.447 26 3 26H7C7.553 26 8 25.553 8 25C8 24.447 7.553 24 7 24Z" fill="black"/>
<path d="M43.2641 7.322L40.4361 10.15C40.0451 10.541 40.0451 11.173 40.4361 11.564C40.6311 11.759 40.8871 11.857 41.1431 11.857C41.3991 11.857 41.6551 11.759 41.8501 11.564L44.6781 8.736C45.0691 8.345 45.0691 7.713 44.6781 7.322C44.2871 6.931 43.6541 6.932 43.2641 7.322Z" fill="black"/>
<path d="M12.1501 38.436L9.32206 41.264C8.93106 41.655 8.93106 42.287 9.32206 42.678C9.51706 42.873 9.77306 42.971 10.0291 42.971C10.2851 42.971 10.5411 42.873 10.7361 42.678L13.5641 39.85C13.9551 39.459 13.9551 38.827 13.5641 38.436C13.1731 38.045 12.5411 38.045 12.1501 38.436Z" fill="black"/>
<path d="M41.8501 38.436C41.4591 38.045 40.8271 38.045 40.4361 38.436C40.0451 38.827 40.0451 39.459 40.4361 39.85L43.2641 42.678C43.4591 42.873 43.7151 42.971 43.9711 42.971C44.2271 42.971 44.4831 42.873 44.6781 42.678C45.0691 42.287 45.0691 41.655 44.6781 41.264L41.8501 38.436Z" fill="black"/>
<path d="M12.1501 11.564C12.3451 11.759 12.6011 11.857 12.8571 11.857C13.1131 11.857 13.3691 11.759 13.5641 11.564C13.9551 11.173 13.9551 10.541 13.5641 10.15L10.7361 7.322C10.3451 6.931 9.71306 6.931 9.32206 7.322C8.93106 7.713 8.93106 8.345 9.32206 8.736L12.1501 11.564Z" fill="black"/>
<path d="M27 13C20.383 13 15 18.383 15 25C15 25.553 15.447 26 16 26C16.553 26 17 25.553 17 25C17 19.486 21.486 15 27 15C27.553 15 28 14.553 28 14C28 13.447 27.553 13 27 13Z" fill="black"/>
</svg>
