<svg width="54" height="54" viewBox="0 0 54 54" fill="none" xmlns="http://www.w3.org/2000/svg">
<g clip-path="url(#clip0)">
<path d="M8.97237 47.981C8.7763 47.7847 8.50419 47.672 8.22681 47.672C7.94942 47.672 7.67731 47.7847 7.48114 47.981C7.28497 48.1773 7.17212 48.4493 7.17212 48.7267C7.17212 49.0041 7.28487 49.2762 7.48114 49.4722C7.67731 49.6684 7.94942 49.7814 8.22681 49.7814C8.50419 49.7814 8.7763 49.6685 8.97237 49.4722C9.16854 49.2762 9.2815 49.0041 9.2815 48.7267C9.2815 48.4493 9.16864 48.1772 8.97237 47.981Z" fill="black"/>
<path d="M49.5201 19.2943C49.3239 19.098 49.0528 18.9852 48.7744 18.9852C48.497 18.9852 48.2249 19.098 48.0287 19.2943C47.8327 19.4904 47.7197 19.7625 47.7197 20.0399C47.7197 20.3173 47.8326 20.5894 48.0287 20.7855C48.2249 20.9816 48.497 21.0946 48.7744 21.0946C49.0528 21.0946 49.3239 20.9818 49.5201 20.7855C49.7172 20.5894 49.83 20.3173 49.83 20.0399C49.83 19.7625 49.7172 19.4904 49.5201 19.2943Z" fill="black"/>
<path d="M53.6922 0.308918C53.4943 0.111164 53.226 0 52.9462 0L27.0015 0.00137109C26.4191 0.00137109 25.9469 0.47366 25.9469 1.05606V4.07215L15.9496 6.75095C15.387 6.90177 15.053 7.48005 15.2039 8.04262L20.3852 27.3795L15.9029 31.8618C15.3324 31.0288 14.3746 30.481 13.2911 30.481H3.1664C1.42173 30.481 0.00244141 31.9004 0.00244141 33.645V50.8359C0.00244141 52.5806 1.42173 54 3.1664 54H13.2912C14.7733 54 16.0202 52.9753 16.3619 51.5974L17.6159 52.691C18.584 53.5352 19.8243 54.0001 21.1089 54.0001H52.9464C53.5288 54.0001 54.0011 53.5278 54.0011 52.9454V1.05469C54.0009 0.774984 53.8899 0.506672 53.6922 0.308918ZM14.3457 50.836C14.3457 51.4175 13.8725 51.8907 13.291 51.8907H3.16629C2.58474 51.8907 2.11161 51.4176 2.11161 50.836V33.6451C2.11161 33.0635 2.58474 32.5904 3.16629 32.5904H7.174V44.7398C7.174 45.3222 7.64629 45.7945 8.22869 45.7945C8.81109 45.7945 9.28338 45.3222 9.28338 44.7398V32.5904H13.2911C13.8726 32.5904 14.3458 33.0635 14.3458 33.6451V50.836H14.3457ZM17.5143 8.51544L25.9469 6.25588V10.164L25.2401 10.3534C24.9697 10.4259 24.7395 10.6026 24.5997 10.8448C24.4598 11.0871 24.4218 11.3749 24.4943 11.6451C24.8996 13.1576 23.9988 14.7178 22.4863 15.1232C22.2157 15.1957 21.9851 15.3727 21.8453 15.6155C21.7056 15.8582 21.6679 16.1465 21.741 16.4169L25.8521 31.6401H23.7353L22.6445 27.3724C22.6098 27.2366 22.549 27.1114 22.4677 27.0025L17.5143 8.51544ZM25.9469 15.0007V23.9003L24.0233 16.7774C24.8268 16.3625 25.4844 15.7417 25.9469 15.0007ZM41.099 51.8906H21.1086C20.334 51.8906 19.5859 51.6103 19.002 51.1012L16.455 48.8799V34.2928L21.0596 29.6883L21.8947 32.9557C22.0141 33.4226 22.4346 33.7492 22.9165 33.7492L43.6521 33.7504C44.4663 33.7504 45.1286 34.4128 45.1286 35.227C45.1286 36.0412 44.4663 36.7035 43.6521 36.7035H33.0271C32.4447 36.7035 31.9725 37.1758 31.9725 37.7582C31.9725 38.3406 32.4447 38.8129 33.0271 38.8129H46.9532C47.7675 38.8129 48.4298 39.4753 48.4298 40.2895C48.4298 41.1037 47.7675 41.766 46.9532 41.766H33.0271C32.4447 41.766 31.9725 42.2383 31.9725 42.8207C31.9725 43.4031 32.4447 43.8754 33.0271 43.8754H44.6965C45.5107 43.8754 46.1731 44.5378 46.1731 45.352C46.1731 46.1662 45.5107 46.8285 44.6965 46.8285H33.0271C32.4447 46.8285 31.9725 47.3008 31.9725 47.8832C31.9725 48.4656 32.4447 48.9379 33.0271 48.9379H41.099C41.9132 48.9379 42.5755 49.6003 42.5755 50.4145C42.5754 51.2283 41.9131 51.8906 41.099 51.8906ZM51.8917 51.8906H51.8916H44.3655C44.57 51.44 44.6848 50.9404 44.6848 50.4141C44.6848 49.8878 44.57 49.3882 44.3655 48.9375H44.6965C46.6737 48.9375 48.2824 47.3289 48.2824 45.3517C48.2824 44.775 48.1447 44.23 47.9017 43.7467C49.42 43.3297 50.539 41.9381 50.539 40.2893C50.539 39.4894 50.2755 38.75 49.8312 38.153V24.7859C49.8312 24.2035 49.3589 23.7312 48.7765 23.7312C48.1941 23.7312 47.7218 24.2035 47.7218 24.7859V36.7874C47.4739 36.7331 47.2169 36.7035 46.953 36.7035H46.9184C47.1229 36.2529 47.2378 35.7533 47.2378 35.227C47.2378 33.2497 45.6292 31.6412 43.652 31.6412H41.9566C43.7568 30.8691 45.0212 29.0797 45.0212 27C45.0212 24.2168 42.757 21.9525 39.9737 21.9525C37.1906 21.9525 34.9263 24.2168 34.9263 27C34.9263 29.0797 36.1908 30.8691 37.9909 31.6412H32.2257V11.5871C34.1098 11.1765 35.5965 9.68994 36.007 7.80574H43.9404C44.3509 9.68994 45.8376 11.1765 47.7217 11.5871V14.8661C47.7217 15.4485 48.194 15.9208 48.7764 15.9208C49.3588 15.9208 49.8311 15.4485 49.8311 14.8661V10.6455C49.8311 10.0631 49.3588 9.5908 48.7764 9.5908C47.2105 9.5908 45.9367 8.31684 45.9367 6.75105C45.9367 6.16866 45.4644 5.69637 44.882 5.69637H35.0654C34.483 5.69637 34.0107 6.16866 34.0107 6.75105C34.0107 8.31695 32.7369 9.5908 31.1711 9.5908C30.5887 9.5908 30.1164 10.0631 30.1164 10.6455V31.641H28.0564V2.11054L51.8917 2.10938V51.8906ZM39.9739 29.9381C38.3538 29.9381 37.0359 28.6201 37.0359 27.0001C37.0359 25.3801 38.3539 24.062 39.9739 24.062C41.5939 24.062 42.912 25.38 42.912 27C42.912 28.62 41.5941 29.9381 39.9739 29.9381Z" fill="black"/>
<rect x="2" y="32" width="13" height="20" fill="#18C6EC" fill-opacity="0.5"/>
</g>
<defs>
<clipPath id="clip0">
<rect width="54" height="54" fill="white"/>
</clipPath>
</defs>
</svg>
