<svg width="54" height="54" viewBox="0 0 54 54" fill="none" xmlns="http://www.w3.org/2000/svg">
<g clip-path="url(#clip0)">
<rect x="17" y="25" width="20" height="8" fill="#FFDF49" fill-opacity="0.5"/>
<path d="M32 23C32 21.3431 33.3431 20 35 20H39V23H32Z" fill="#FFDF49" fill-opacity="0.5"/>
<path d="M37 23H43V26H37V23Z" fill="#FFDF49" fill-opacity="0.5"/>
<path d="M39 22H43V23H39V22Z" fill="#FFDF49" fill-opacity="0.5"/>
<path d="M35 23H37V25H35V23Z" fill="#FFDF49" fill-opacity="0.5"/>
<rect x="29" y="23" width="6" height="2" fill="#FFDF49" fill-opacity="0.5"/>
<rect x="19" y="23" width="6" height="2" fill="#FFDF49" fill-opacity="0.5"/>
<rect x="15" y="20" width="7" height="3" fill="#FFDF49" fill-opacity="0.5"/>
<rect x="12" y="23" width="7" height="2" fill="#FFDF49" fill-opacity="0.5"/>
<rect x="10" y="25" width="7" height="2" fill="#FFDF49" fill-opacity="0.5"/>
<rect x="12" y="22" width="3" height="1" fill="#FFDF49" fill-opacity="0.5"/>
<path d="M11.5842 52.3344L9.99633 50.0979C9.65925 49.6229 9.00081 49.5112 8.52578 49.8484C8.05086 50.1855 7.93906 50.8439 8.27635 51.3189L9.86418 53.5556C10.0698 53.8453 10.3949 53.9998 10.7251 53.9998C10.9363 53.9998 11.1494 53.9365 11.3347 53.805C11.8096 53.4678 11.9214 52.8095 11.5842 52.3344Z" fill="black"/>
<path d="M23.752 52.7285L22.024 44.4927C21.1837 40.4878 18.8508 37.0249 15.4551 34.7416L11.7657 32.2608C10.2863 31.2662 8.29783 31.4801 7.06132 32.741V20.0325C7.06132 18.3644 5.92405 16.9471 4.29562 16.5856C3.24463 16.3521 2.16062 16.6051 1.32099 17.2787C0.481463 17.9523 0 18.956 0 20.0325V36.3855C0 38.5279 0.655591 40.5838 1.89579 42.3309L3.77661 44.9804C3.98227 45.2701 4.30733 45.4246 4.63755 45.4246C4.8487 45.4246 5.06185 45.3613 5.24716 45.2298C5.72208 44.8926 5.83388 44.2343 5.49659 43.7592L3.61577 41.1098C2.63027 39.7215 2.10937 38.0879 2.10937 36.3854V20.0325C2.10937 19.5992 2.30322 19.1951 2.64114 18.9239C2.97895 18.6527 3.41528 18.5509 3.83863 18.6449C4.49411 18.7904 4.95195 19.3609 4.95195 20.0325V33.0068C4.95195 34.8434 5.62674 36.5932 6.85259 37.9546C6.90512 38.0176 6.95912 38.0799 7.01618 38.1403C7.71659 38.8825 8.54009 39.757 9.3157 40.5814L10.4015 41.737C10.405 41.7407 10.4088 41.7439 10.4124 41.7474C11.3412 42.7354 12.0262 43.4649 12.0406 43.4801C12.4391 43.9046 13.1068 43.9257 13.5314 43.5269C13.956 43.1281 13.977 42.4607 13.5781 42.0361C13.5589 42.0156 12.3243 40.701 10.9144 39.2024L8.49611 36.6286C8.48999 36.6221 8.4844 36.6152 8.47828 36.6087C7.91129 35.9305 7.91835 34.9473 8.51267 34.2763C9.03842 33.6829 9.93111 33.569 10.5889 34.0112L14.2781 36.4921C17.2152 38.467 19.2329 41.462 19.9596 44.9258L21.6877 53.1618C21.792 53.6588 22.2304 54 22.7188 54C22.7905 54 22.8634 53.9926 22.9364 53.9773C23.5065 53.8577 23.8716 53.2985 23.752 52.7285Z" fill="black"/>
<path d="M7.81409 47.0239L7.80734 47.0144C7.46878 46.5402 6.81024 46.4301 6.33616 46.7685C5.86208 47.1068 5.75197 47.7655 6.09021 48.2395L6.09696 48.249C6.30283 48.5375 6.62715 48.6912 6.95642 48.6912C7.16841 48.6912 7.38241 48.6275 7.56814 48.495C8.04211 48.1566 8.15232 47.498 7.81409 47.0239Z" fill="black"/>
<path d="M52.6788 17.2787C51.8393 16.6051 50.7547 16.3526 49.7043 16.5857C48.0758 16.947 46.9385 18.3644 46.9385 20.0325V32.741C45.7021 31.4802 43.7133 31.2663 42.2341 32.2608L38.5447 34.7416C35.1489 37.0247 32.816 40.4878 31.9758 44.4926L30.2478 52.7286C30.1282 53.2986 30.4933 53.8577 31.0634 53.9773C31.1364 53.9926 31.2093 54 31.281 54C31.7695 54 32.2078 53.6587 32.3121 53.1616L34.0401 44.9257C34.7669 41.462 36.7845 38.4668 39.7216 36.492L43.411 34.0113C44.0686 33.569 44.9613 33.6829 45.4872 34.2762C46.0808 34.9464 46.0887 35.9281 45.5238 36.6063C45.5171 36.6136 45.5106 36.6212 45.5039 36.6286C45.5039 36.6286 40.4409 42.0158 40.4218 42.0361C40.023 42.4607 40.044 43.1281 40.4685 43.5269C40.8931 43.9256 41.5605 43.9047 41.9593 43.48C41.9737 43.4649 46.2833 38.8826 46.9837 38.1404C47.0408 38.08 47.0948 38.0176 47.1473 37.9547C48.373 36.5933 49.0479 34.8435 49.0479 33.0068V20.0324C49.0479 19.3609 49.5058 18.7903 50.1614 18.6449C50.5846 18.551 51.0208 18.6528 51.3589 18.9238C51.6968 19.195 51.8906 19.599 51.8906 20.0324V36.3855C51.8906 38.088 51.3697 39.7216 50.3842 41.1099L42.416 52.3345C42.0788 52.8095 42.1905 53.4679 42.6654 53.8051C42.8508 53.9366 43.0639 53.9999 43.275 53.9999C43.6051 53.9999 43.9303 53.8453 44.136 53.5557L52.1042 42.331C53.3444 40.5839 54 38.528 54 36.3856V20.0324C53.9997 18.956 53.5183 17.9524 52.6788 17.2787Z" fill="black"/>
<path d="M40.3582 20.2141L38.4818 19.7658V19.4294C39.7014 18.5751 40.501 17.1604 40.501 15.5617V13.1224C40.501 10.5195 38.3835 8.40202 35.7807 8.40202C34.6126 8.40202 33.5432 8.82938 32.7181 9.53475C31.7995 7.28511 29.5891 5.69528 27.0131 5.69528C24.434 5.69528 22.2213 7.28922 21.3047 9.54319C20.4784 8.83275 19.405 8.40181 18.2322 8.40181C15.6294 8.40181 13.5119 10.5193 13.5119 13.1222V13.2843V15.5615C13.5119 17.1602 14.3116 18.5749 15.5311 19.4292V19.7656L13.6547 20.2138C11.4143 20.7491 9.84961 22.7316 9.84961 25.035V27.0047C9.84961 27.5872 10.3219 28.0594 10.9043 28.0594H15.7508C15.7433 28.1874 15.7381 28.3159 15.7381 28.4455V32.238C15.7381 32.8205 16.2104 33.2927 16.7928 33.2927H23.1325C23.7149 33.2927 24.1872 32.8205 24.1872 32.238C24.1872 31.6555 23.7149 31.1833 23.1325 31.1833H22.0428V29.0038C22.0428 28.4213 21.5705 27.9491 20.9881 27.9491C20.4057 27.9491 19.9334 28.4213 19.9334 29.0038V31.1835H17.8476V28.4458C17.8476 26.4116 19.2292 24.6599 21.2072 24.1859L24.1014 23.4923L26.0384 27.899C26.2067 28.282 26.5855 28.5293 27.0037 28.5293H27.0038C27.4221 28.5293 27.801 28.2821 27.9693 27.8991L29.9042 23.499L32.7893 24.1882C34.7691 24.6612 36.1519 26.4132 36.1519 28.4488V31.1835H34.0661V29.0038C34.0661 28.4213 33.5938 27.9491 33.0114 27.9491C32.429 27.9491 31.9567 28.4213 31.9567 29.0038V31.1835H30.7614C30.1791 31.1835 29.7068 31.6557 29.7068 32.2382C29.7068 32.8207 30.1791 33.2929 30.7614 33.2929H37.2067C37.7891 33.2929 38.2614 32.8207 38.2614 32.2382V28.4488C38.2614 28.3181 38.2561 28.1886 38.2485 28.0596H43.1087C43.6911 28.0596 44.1634 27.5874 44.1634 27.0049V25.0352C44.1634 22.7318 42.5987 20.7492 40.3582 20.2141ZM35.7807 10.5112C37.1625 10.5112 38.2969 11.5902 38.386 12.9499H36.9196C35.6869 12.9499 34.4738 12.6531 33.3834 12.088C33.7845 11.1612 34.7082 10.5112 35.7807 10.5112ZM33.1697 15.4075C33.171 15.3562 33.1736 15.305 33.1736 15.2533V14.314C34.3571 14.8038 35.6298 15.0593 36.9196 15.0593H38.3917V15.5616C38.3917 17.0013 37.2204 18.1726 35.7807 18.1726C34.3409 18.1726 33.1697 17.0013 33.1697 15.5615V15.4075ZM22.9621 11.8557C22.9621 9.62197 24.7793 7.80465 27.0131 7.80465C29.0279 7.80465 30.7037 9.2831 31.0131 11.2119L29.2375 10.1687C28.7934 9.90779 28.2258 10.0058 27.8949 10.4008C27.0272 11.4362 25.7548 12.0301 24.4037 12.0301H22.9621V11.8557ZM18.2323 10.5112C19.3048 10.5112 20.2284 11.1613 20.6296 12.0879C19.5391 12.653 18.3261 12.9498 17.0934 12.9498H15.6271C15.7161 11.5902 16.8506 10.5112 18.2323 10.5112ZM15.6214 15.0592H17.0934C18.3846 15.0592 19.6587 14.8032 20.8433 14.3124V15.5614C20.8433 17.0011 19.6721 18.1724 18.2323 18.1724C16.7926 18.1724 15.6214 17.0013 15.6214 15.5615V15.0592ZM20.7157 22.1345C18.6407 22.6317 17.01 24.0784 16.2338 25.9502H11.959V25.0351C11.959 23.7119 12.8578 22.573 14.1448 22.2655L16.8309 21.6238C17.3056 21.5105 17.6406 21.0862 17.6406 20.5981V20.2435C17.8346 20.2678 18.0318 20.2819 18.2323 20.2819C18.4314 20.2819 18.6272 20.2681 18.8198 20.244V20.5449C18.8191 20.5606 18.8187 20.5763 18.8186 20.5921C18.8184 20.9381 18.9885 21.2771 19.3009 21.4791C19.4186 21.5554 19.5458 21.605 19.6757 21.6298L21.2489 22.0067L20.7157 22.1345ZM23.6576 20.4972C23.3867 20.3777 23.1042 20.2822 22.8131 20.2125L20.9291 19.761V19.4323C21.2691 19.1947 21.5765 18.9138 21.8432 18.5972C22.3142 19.3228 22.9331 19.9433 23.6576 20.4159V20.4972ZM28.2383 22.0469L27.0041 24.8539L25.7671 22.0397V21.2871C26.1697 21.3701 26.5864 21.4139 27.0131 21.4139C27.4326 21.4139 27.8422 21.3714 28.2383 21.2911V22.0469ZM27.0131 19.3044C24.7793 19.3045 22.9621 17.4872 22.9621 15.2533V14.1394H24.4037C26.0762 14.1394 27.6665 13.5174 28.8853 12.4081L31.0602 13.686V15.4076C30.9788 17.5701 29.1952 19.3044 27.0131 19.3044ZM30.3477 20.5006V20.4292C31.0782 19.9569 31.7025 19.3349 32.1773 18.6061C32.4421 18.9191 32.7469 19.1969 33.0836 19.4323V19.761L31.1995 20.2125C30.9058 20.2829 30.621 20.3796 30.3477 20.5006ZM42.0539 25.9502H37.7645C36.9877 24.0784 35.3558 22.6325 33.2795 22.1365L32.7499 22.0101L34.3317 21.631C34.4633 21.6066 34.5926 21.5563 34.7119 21.4791C35.0237 21.2774 35.1933 20.9384 35.1933 20.5924C35.1933 20.5841 35.1932 20.5758 35.193 20.5676V20.244C35.3857 20.2681 35.5815 20.2819 35.7805 20.2819C35.981 20.2819 36.1782 20.2678 36.3723 20.2435V20.5981C36.3723 21.0862 36.7072 21.5105 37.1819 21.6238L39.868 22.2655C41.155 22.5731 42.0539 23.7119 42.0539 25.0351V25.9502Z" fill="black"/>
<path d="M27.7456 31.4918C27.5484 31.2956 27.2774 31.1838 27 31.1838C26.7215 31.1838 26.4505 31.2956 26.2543 31.4918C26.0571 31.689 25.9453 31.9601 25.9453 32.2385C25.9453 32.5159 26.0571 32.7869 26.2543 32.9841C26.4505 33.1803 26.7216 33.2932 27 33.2932C27.2774 33.2932 27.5484 33.1803 27.7456 32.9841C27.9417 32.7869 28.0547 32.5159 28.0547 32.2385C28.0547 31.9601 27.9418 31.689 27.7456 31.4918Z" fill="black"/>
<path d="M26.999 0C26.4166 0 25.9443 0.472182 25.9443 1.05468V2.63281C25.9443 3.21531 26.4166 3.68749 26.999 3.68749C27.5814 3.68749 28.0537 3.21531 28.0537 2.63281V1.05468C28.0537 0.472182 27.5815 0 26.999 0Z" fill="black"/>
<path d="M23.1142 3.44026L22.0079 2.33495C21.5958 1.9232 20.9281 1.92352 20.5163 2.33558C20.1046 2.74765 20.105 3.41547 20.5171 3.82712L21.6235 4.93242C21.8294 5.13819 22.0992 5.24103 22.3689 5.24103C22.639 5.24103 22.909 5.13788 23.115 4.93179C23.5265 4.51973 23.5263 3.8519 23.1142 3.44026Z" fill="black"/>
<path d="M33.457 2.36197C33.0449 1.95032 32.377 1.95053 31.9654 2.36271L30.8676 3.46158C30.456 3.87364 30.4563 4.54147 30.8683 4.95311C31.0743 5.15888 31.344 5.26171 31.6138 5.26171C31.8839 5.26171 32.154 5.15857 32.3599 4.95238L33.4577 3.8535C33.8693 3.44144 33.869 2.77361 33.457 2.36197Z" fill="black"/>
</g>
<defs>
<clipPath id="clip0">
<rect width="54" height="54" fill="white"/>
</clipPath>
</defs>
</svg>
