<svg width="49" height="37" viewBox="0 0 49 37" fill="none" xmlns="http://www.w3.org/2000/svg">
<path d="M23.0587 18.5582C23.0587 24.5817 22.1535 28.9984 20.3431 31.8084C18.5327 34.6028 15.7615 36 12.0293 36C8.38074 36 5.63037 34.5407 3.77822 31.6221C1.92607 28.688 1 24.3333 1 18.5582C1 12.5037 1.90519 8.06365 3.71556 5.23819C5.52593 2.41273 8.29719 1 12.0293 1C15.664 1 18.4074 2.47483 20.2596 5.42448C22.1256 8.35862 23.0587 12.7365 23.0587 18.5582ZM9.20933 18.5582C9.20933 22.4083 9.42519 25.0552 9.85689 26.499C10.2886 27.9428 11.0127 28.6647 12.0293 28.6647C13.0599 28.6647 13.784 27.9195 14.2018 26.4291C14.6335 24.9388 14.8493 22.3151 14.8493 18.5582C14.8493 14.7858 14.6335 12.1466 14.2018 10.6407C13.7701 9.11932 13.0459 8.35862 12.0293 8.35862C11.0127 8.35862 10.2886 9.08827 9.85689 10.5476C9.42519 12.0069 9.20933 14.6771 9.20933 18.5582Z" stroke="white" stroke-opacity="0.84" stroke-width="2"/>
<path d="M48 35.5343H25.8369V29.4797L33.2942 21.0732C35.4249 18.5893 36.8175 16.8971 37.472 15.9967C38.1265 15.0807 38.5791 14.2967 38.8298 13.6447C39.0944 12.9927 39.2267 12.3096 39.2267 11.5955C39.2267 10.7106 38.969 10.012 38.4538 9.49967C37.9385 8.98736 37.2144 8.7312 36.2813 8.7312C35.3204 8.7312 34.3456 9.04169 33.3569 9.66267C32.3821 10.2681 31.275 11.1686 30.0356 12.3639L25.5027 6.4491C27.0763 4.88113 28.3993 3.76336 29.4716 3.09581C30.5439 2.41273 31.7067 1.89266 32.96 1.5356C34.2273 1.17853 35.6477 1 37.2213 1C39.1988 1 40.9604 1.38811 42.5062 2.16434C44.0659 2.94056 45.2705 4.05057 46.12 5.49434C46.9834 6.9226 47.4151 8.52939 47.4151 10.3147C47.4151 11.6498 47.2619 12.884 46.9556 14.0173C46.6631 15.1506 46.2036 16.2684 45.5769 17.3706C44.9502 18.4573 44.1147 19.6061 43.0702 20.817C42.0397 22.0279 39.8324 24.3256 36.4484 27.7099V27.9428H48V35.5343Z" stroke="white" stroke-opacity="0.84" stroke-width="2"/>
</svg>
