<svg width="49" height="37" viewBox="0 0 49 37" fill="none" xmlns="http://www.w3.org/2000/svg">
<path d="M22.6073 18.5582C22.6073 24.5817 21.7206 28.9984 19.9473 31.8084C18.174 34.6028 15.4594 36 11.8037 36C8.22972 36 5.53563 34.5407 3.72138 31.6221C1.90713 28.688 1 24.3333 1 18.5582C1 12.5037 1.88666 8.06365 3.65999 5.23819C5.43332 2.41273 8.14787 1 11.8037 1C15.364 1 18.0512 2.47483 19.8655 5.42448C21.6934 8.35862 22.6073 12.7365 22.6073 18.5582ZM9.04136 18.5582C9.04136 22.4083 9.25279 25.0552 9.67566 26.499C10.0985 27.9428 10.8079 28.6647 11.8037 28.6647C12.8131 28.6647 13.5224 27.9195 13.9317 26.4291C14.3545 24.9388 14.566 22.3151 14.566 18.5582C14.566 14.7858 14.3545 12.1466 13.9317 10.6407C13.5088 9.11932 12.7994 8.35862 11.8037 8.35862C10.8079 8.35862 10.0985 9.08827 9.67566 10.5476C9.25279 12.0069 9.04136 14.6771 9.04136 18.5582ZM48 28.9441H44.7057V35.5343H36.7257V28.9441H24.7967V22.191L37.2373 1.48902H44.7057V22.0745H48V28.9441ZM36.7257 22.0745V18.1158C36.7257 17.3706 36.7462 16.3693 36.7871 15.1118C36.8417 13.8388 36.8826 13.1712 36.9099 13.1091H36.6848C36.221 14.3045 35.6958 15.4223 35.1093 16.4624L31.7945 22.0745H36.7257Z" stroke="white" stroke-opacity="0.84" stroke-width="2"/>
</svg>
