<svg width="80" height="60" viewBox="0 0 80 60" fill="none" xmlns="http://www.w3.org/2000/svg">
<path d="M65.3988 18.7208L60.6837 5.49489C60.3309 4.50515 59.3815 3.84021 58.3214 3.84021H21.68C20.6198 3.84021 19.6706 4.50515 19.3178 5.49473L14.6027 18.7208C14.3288 19.4891 14.924 20.3203 15.7456 20.3203H64.2559C64.6491 20.3203 65.018 20.1312 65.2451 19.8134C65.4724 19.4955 65.5298 19.0881 65.3988 18.7208ZM17.4588 17.9202L21.6038 6.29349C21.6147 6.26267 21.6468 6.24015 21.6799 6.24015H58.3214C58.3545 6.24015 58.3866 6.26267 58.3977 6.29365L62.5427 17.9202H17.4588Z" fill="black"/>
<path d="M63.2725 34.5604C58.9677 34.5604 55.5957 36.7743 55.5957 39.6005C55.5957 42.4266 58.9677 44.6405 63.2725 44.6405C67.5773 44.6405 70.9493 42.4266 70.9493 39.6005C70.9493 36.7743 67.5773 34.5604 63.2725 34.5604ZM63.2725 42.2404C60.2662 42.2404 58.0199 40.8467 58.0199 39.6005C58.0199 38.3543 60.266 36.9605 63.2725 36.9605C66.2788 36.9605 68.5251 38.3543 68.5251 39.6005C68.5251 40.8467 66.2788 42.2404 63.2725 42.2404Z" fill="black"/>
<path d="M16.7276 34.5604C12.4228 34.5604 9.05078 36.7743 9.05078 39.6005C9.05078 42.4266 12.4228 44.6405 16.7276 44.6405C21.0324 44.6405 24.4044 42.4266 24.4044 39.6005C24.4044 36.7743 21.0324 34.5604 16.7276 34.5604ZM16.7276 42.2404C13.7214 42.2404 11.475 40.8467 11.475 39.6005C11.475 38.3543 13.7212 36.9605 16.7276 36.9605C19.7339 36.9605 21.9802 38.3543 21.9802 39.6005C21.9802 40.8467 19.7339 42.2404 16.7276 42.2404Z" fill="black"/>
<path d="M78.7881 16.6401H72.3235C71.7674 16.6401 71.2825 17.0149 71.1477 17.549L70.2962 20.9208L64.3408 4.21655C63.4417 1.6946 61.0225 0 58.3209 0H21.6795C18.9778 0 16.5586 1.6946 15.6596 4.21671L9.70434 20.921L8.85283 17.549C8.71782 17.0147 8.23295 16.6401 7.67695 16.6401H1.21217C0.542777 16.6401 0 17.1773 0 17.8401V22.9602C0 23.623 0.542777 24.1602 1.21217 24.1602H7.90728L3.77492 29.8876C2.99713 30.9656 2.58597 32.2361 2.58597 33.561V48.5601C2.58597 50.6385 3.60491 52.4854 5.17388 53.6379C5.1734 53.6519 5.17179 53.6658 5.17179 53.68V57.5201C5.17179 58.8876 6.29557 60 7.67679 60H15.4344C16.8158 60 17.9394 58.8875 17.9394 57.5201V54.8801H62.0606V57.5201C62.0606 58.8876 63.1844 60 64.5656 60H72.3232C73.7046 60 74.8282 58.8875 74.8282 57.5201V53.68C74.8282 53.6658 74.8266 53.6519 74.8261 53.6379C76.3951 52.4854 77.414 50.6385 77.414 48.5601V33.561C77.414 32.2359 77.0027 30.9655 76.2249 29.8876L72.0926 24.1602H78.7878C79.4574 24.1602 80 23.623 80 22.9602V17.8401C80.0002 17.1771 79.4577 16.6401 78.7881 16.6401ZM2.42435 21.76V19.04H6.73043L7.41725 21.76H2.42435ZM15.5154 57.5201C15.5154 57.5641 15.4792 57.6001 15.4345 57.6001H7.67695C7.63243 57.6001 7.59614 57.5641 7.59614 57.5201V54.8801H8.96993H15.5154V57.5201ZM72.4042 57.5201C72.4042 57.5641 72.3679 57.6001 72.3234 57.6001H64.5658C64.5213 57.6001 64.485 57.5641 64.485 57.5201V54.8801H71.0304H72.4042V57.5201ZM71.0305 52.48H8.96977C7.20917 52.48 5.71392 51.3363 5.20066 49.76H74.7995C74.2862 51.3363 72.7911 52.48 71.0305 52.48ZM50.4244 39.5201V42.24H29.5759V39.5201H50.4244ZM29.7664 37.12C30.2797 35.5437 31.7748 34.4 33.5355 34.4H46.4649C48.2255 34.4 49.7208 35.5437 50.234 37.12H29.7664ZM50.4244 44.64V47.3599H29.5759V44.64H50.4244ZM74.2527 31.2825C74.7351 31.9511 74.9902 32.739 74.9902 33.5609V47.3601H52.8487V38.32C52.8487 34.8352 49.9848 32.0001 46.4649 32.0001H33.5355C30.0155 32.0001 27.1518 34.8353 27.1518 38.32V47.3601H5.01016V33.5609C5.01016 32.739 5.26518 31.9511 5.74763 31.2825L10.8865 24.1601H55.5152C56.1847 24.1601 56.7274 23.6229 56.7274 22.96C56.7274 22.2972 56.1847 21.76 55.5152 21.76H11.9759L17.9455 5.0153C18.5033 3.45116 20.0037 2.39994 21.6795 2.39994H58.321C59.9966 2.39994 61.497 3.451 62.055 5.0153L68.0244 21.76H60.687C60.0174 21.76 59.4748 22.2972 59.4748 22.96C59.4748 23.6229 60.0174 24.1601 60.687 24.1601H69.1138L74.2527 31.2825ZM77.576 21.76H72.5829L73.2697 19.04H77.576V21.76Z" fill="black"/>
</svg>
