<svg width="49" height="37" viewBox="0 0 49 37" fill="none" xmlns="http://www.w3.org/2000/svg">
<path d="M24.9768 18.5582C24.9768 24.5817 23.9929 28.9984 22.0251 31.8084C20.0573 34.6028 17.0451 36 12.9884 36C9.02254 36 6.03301 34.5407 4.01981 31.6221C2.0066 28.688 1 24.3333 1 18.5582C1 12.5037 1.9839 8.06365 3.95169 5.23819C5.91948 2.41273 8.93172 1 12.9884 1C16.9391 1 19.9211 2.47483 21.9343 5.42448C23.9626 8.35862 24.9768 12.7365 24.9768 18.5582ZM9.92319 18.5582C9.92319 22.4083 10.1578 25.0552 10.6271 26.499C11.0963 27.9428 11.8834 28.6647 12.9884 28.6647C14.1085 28.6647 14.8957 27.9195 15.3498 26.4291C15.819 24.9388 16.0536 22.3151 16.0536 18.5582C16.0536 14.7858 15.819 12.1466 15.3498 10.6407C14.8805 9.11932 14.0934 8.35862 12.9884 8.35862C11.8834 8.35862 11.0963 9.08827 10.6271 10.5476C10.1578 12.0069 9.92319 14.6771 9.92319 18.5582Z" stroke="black" stroke-opacity="0.84" stroke-width="2"/>
<path d="M48 35.5343H38.8952V17.5103C38.8952 15.3214 38.9406 13.3187 39.0314 11.5023C38.4713 12.2009 37.775 12.9306 36.9425 13.6913L33.1734 16.8816L28.5188 11.0133L39.9169 1.48902H48V35.5343Z" stroke="black" stroke-opacity="0.84" stroke-width="2"/>
</svg>
