<svg width="49" height="37" viewBox="0 0 49 37" fill="none" xmlns="http://www.w3.org/2000/svg">
<path d="M23.1176 18.5582C23.1176 24.5817 22.21 28.9984 20.3948 31.8084C18.5796 34.6028 15.801 36 12.0588 36C8.40048 36 5.64275 34.5407 3.78565 31.6221C1.92855 28.688 1 24.3333 1 18.5582C1 12.5037 1.90761 8.06365 3.72282 5.23819C5.53803 2.41273 8.3167 1 12.0588 1C15.7032 1 18.454 2.47483 20.3111 5.42448C22.1821 8.35862 23.1176 12.7365 23.1176 18.5582ZM9.23128 18.5582C9.23128 22.4083 9.44771 25.0552 9.88057 26.499C10.3134 27.9428 11.0395 28.6647 12.0588 28.6647C13.0921 28.6647 13.8182 27.9195 14.2371 26.4291C14.6699 24.9388 14.8864 22.3151 14.8864 18.5582C14.8864 14.7858 14.6699 12.1466 14.2371 10.6407C13.8042 9.11932 13.0781 8.35862 12.0588 8.35862C11.0395 8.35862 10.3134 9.08827 9.88057 10.5476C9.44771 12.0069 9.23128 14.6771 9.23128 18.5582Z" stroke="black" stroke-opacity="0.84" stroke-width="2"/>
<path d="M47.0994 8.87092C47.0994 10.9823 46.5199 12.7986 45.361 14.32C44.202 15.8259 42.5264 16.9204 40.3342 17.6035V17.7432C45.4447 18.4573 48 21.143 48 25.8004C48 28.9674 46.869 31.4591 44.607 33.2754C42.3589 35.0918 39.2311 36 35.2237 36C33.5761 36 32.0471 35.868 30.6368 35.6041C29.2405 35.3402 27.7255 34.8589 26.0918 34.1603V26.5223C27.4323 27.283 28.7937 27.8496 30.176 28.2222C31.5723 28.5793 32.857 28.7578 34.0299 28.7578C35.8451 28.7578 37.1646 28.4784 37.9884 27.9195C38.8262 27.3451 39.2451 26.4524 39.2451 25.2415C39.2451 24.31 39.0287 23.5959 38.5958 23.0991C38.163 22.5868 37.4648 22.2065 36.5013 21.9581C35.5379 21.6942 34.2812 21.5622 32.7313 21.5622H30.8463V14.646H32.7732C36.9761 14.646 39.0775 13.4507 39.0775 11.0599C39.0775 10.1595 38.7634 9.4919 38.135 9.05722C37.5206 8.62253 36.6898 8.40519 35.6426 8.40519C33.6878 8.40519 31.6631 9.13484 29.5686 10.5941L26.1337 4.44644C27.7534 3.20448 29.408 2.31958 31.0976 1.79175C32.8011 1.26392 34.749 1 36.9412 1C40.1108 1 42.5963 1.6986 44.3975 3.09581C46.1988 4.49301 47.0994 6.41805 47.0994 8.87092Z" stroke="black" stroke-opacity="0.84" stroke-width="2"/>
</svg>
