<svg width="80" height="67" viewBox="0 0 80 67" fill="none" xmlns="http://www.w3.org/2000/svg">
<path d="M78.8094 13.6328H66.286C65.9225 13.6328 65.5975 13.7965 65.3792 14.0541L63.8419 1.05317C63.7708 0.452479 63.263 0 62.6597 0H17.5556C16.9523 0 16.4445 0.452479 16.3734 1.05317L14.8017 14.3433C14.6167 13.9249 14.1995 13.6327 13.7137 13.6327H1.19047C0.532968 13.6327 0 14.1669 0 14.8264V22.1273C0 22.7075 0.41578 23.2035 0.985779 23.3033L11.8372 25.2011C10.9559 26.7082 10.4483 28.4601 10.4483 30.3297V34.158H5.08577C4.42812 34.158 3.89531 34.6922 3.89531 35.3517V51.5248C3.89531 51.5388 3.89687 51.5526 3.89734 51.5665C3.89687 51.5805 3.89531 51.5942 3.89531 51.6082V65.8063C3.89531 66.4656 4.42812 67 5.08577 67H18.6286C19.2861 67 19.819 66.4657 19.819 65.8063V52.7185H60.3963V65.8063C60.3963 66.4656 60.9291 67 61.5868 67H75.1295C75.787 67 76.32 66.4657 76.32 65.8063V51.6082C76.32 51.5942 76.3185 51.5805 76.318 51.5665C76.3185 51.5526 76.32 51.5388 76.32 51.5248V35.3517C76.32 34.6922 75.7872 34.158 75.1295 34.158H69.7672V30.3297C69.7672 28.4462 69.2522 26.6817 68.3586 25.167L79.0142 23.3035C79.5842 23.2037 80 22.7076 80 22.1275V14.8265C79.9998 14.1671 79.467 13.6328 78.8094 13.6328ZM18.6132 2.38711H61.6024L63.8111 21.0676C62.5329 20.4838 61.1147 20.1557 59.621 20.1557H58.708L57.4947 6.9188C57.4385 6.30463 56.9244 5.83444 56.3093 5.83444H22.6003C21.9851 5.83444 21.4712 6.30463 21.4148 6.9188L20.2007 20.1657C18.8515 20.2176 17.5697 20.5353 16.4043 21.0677L18.6132 2.38711ZM56.3169 20.1559H22.5925L23.6862 8.22187H55.2232L56.3169 20.1559ZM12.829 35.3514V30.3294C12.829 26.0357 16.3125 22.5428 20.5945 22.5428H59.621C63.903 22.5428 67.3864 26.0357 67.3864 30.3294V35.3514V42.665H49.9794V26.844C49.9794 26.1846 49.4466 25.6503 48.789 25.6503C48.1315 25.6503 47.5985 26.1846 47.5985 26.844V42.665H44.1101V26.844C44.1101 26.1846 43.5773 25.6503 42.9196 25.6503C42.262 25.6503 41.7291 26.1846 41.7291 26.844V42.665H38.2409V26.844C38.2409 26.1846 37.7081 25.6503 37.0504 25.6503C36.3927 25.6503 35.8599 26.1846 35.8599 26.844V42.665H32.9593V26.844C32.9593 26.1846 32.4265 25.6503 31.7688 25.6503C31.1112 25.6503 30.5784 26.1846 30.5784 26.844V42.665H12.829V35.3514ZM2.38078 21.124V16.0201H12.5234V22.8978L2.38078 21.124ZM6.27608 36.5451H10.4483V43.8587V50.331H6.27608V36.5451ZM17.4381 64.6126H6.27608V52.8019H17.4381V64.6126ZM12.829 50.3311V45.0526H67.3863V50.3311H12.829ZM69.7672 43.8587V36.5451H73.9394V50.331H69.7672V43.8587ZM73.9392 52.8017V64.6124H62.7772V52.8017H73.9392ZM77.6191 21.124L67.4766 22.8978V16.0201H77.6191V21.124Z" fill="black"/>
<path d="M21.823 24.8821C18.6026 24.8821 15.9824 27.5094 15.9824 30.7388C15.9824 33.9682 18.6026 36.5955 21.823 36.5955C25.0437 36.5955 27.6638 33.9682 27.6638 30.7388C27.6638 27.5094 25.0437 24.8821 21.823 24.8821ZM21.823 34.2082C19.9152 34.2082 18.3632 32.6518 18.3632 30.7388C18.3632 28.8258 19.9152 27.2693 21.823 27.2693C23.7308 27.2693 25.283 28.8258 25.283 30.7388C25.283 32.6518 23.7308 34.2082 21.823 34.2082Z" fill="black"/>
<path d="M58.0945 24.8821C54.8741 24.8821 52.2539 27.5094 52.2539 30.7388C52.2539 33.9682 54.8741 36.5955 58.0945 36.5955C61.3151 36.5955 63.9353 33.9682 63.9353 30.7388C63.9353 27.5094 61.3151 24.8821 58.0945 24.8821ZM58.0945 34.2082C56.1867 34.2082 54.6347 32.6518 54.6347 30.7388C54.6347 28.8258 56.1867 27.2693 58.0945 27.2693C60.0023 27.2693 61.5545 28.8258 61.5545 30.7388C61.5545 32.6518 60.0023 34.2082 58.0945 34.2082Z" fill="black"/>
</svg>
