<svg width="25" height="25" viewBox="0 0 25 25" fill="none" xmlns="http://www.w3.org/2000/svg">
<path d="M25 12.5C25 19.4036 19.4034 25 12.5 25C11.1418 25 9.83501 24.7834 8.61045 24.3829C9.72772 18.8916 11.4823 16.3033 16.8418 12.9906C17.3533 13.8771 18.3112 14.4737 19.4079 14.4737C21.043 14.4737 22.3684 13.1482 22.3684 11.5132C22.3684 9.87814 21.043 8.55263 19.4079 8.55263C17.8467 8.55263 16.5675 9.76129 16.4551 11.294C10.2687 13.4305 7.41352 15.6451 3.9827 21.6489C3.22523 20.9433 2.55512 20.1446 1.99103 19.2711C2.60267 14.505 3.88248 10.8828 7.93393 8.15831C8.47682 8.80183 9.28955 9.21053 10.1974 9.21053C11.8325 9.21053 13.1579 7.88502 13.1579 6.25C13.1579 4.61498 11.8325 3.28947 10.1974 3.28947C8.56227 3.28947 7.23684 4.61498 7.23684 6.25C7.23684 6.43535 7.25355 6.61677 7.28631 6.79265C3.84843 8.05552 1.99103 9.77117 0 12.6687V12.5C0 5.59644 5.5966 0 12.5 0C19.4034 0 25 5.59644 25 12.5Z" fill="white"/>
</svg>
