<svg width="80" height="50" viewBox="0 0 80 50" fill="none" xmlns="http://www.w3.org/2000/svg">
<path d="M78.2283 30.6551C77.9003 30.0992 77.1823 29.913 76.6242 30.2398C76.0661 30.5665 75.8795 31.2819 76.2073 31.838C77.1552 33.4455 77.6561 35.2833 77.6561 37.1525C77.6561 42.9491 72.923 47.665 67.1053 47.665C61.2875 47.665 56.5544 42.9491 56.5544 37.1525C56.5544 35.6776 56.8641 34.2289 57.4583 32.8944L60.572 35.8448C60.4855 36.2745 60.4414 36.712 60.4414 37.1525C60.4414 40.8137 63.4308 43.792 67.1052 43.792C70.7795 43.792 73.7689 40.8135 73.7689 37.1525C73.7689 33.4916 70.7795 30.5131 67.1052 30.5131C66.5492 30.5131 66.0011 30.583 65.467 30.718L62.3534 27.7679C63.8197 27.0279 65.4377 26.6403 67.1052 26.6403C69.61 26.6403 72.0395 27.5325 73.9461 29.153C74.1667 29.3405 74.4372 29.4322 74.7059 29.4322C75.0372 29.4322 75.3664 29.2931 75.5981 29.0223C76.0181 28.5318 75.9595 27.7947 75.467 27.3763C73.1366 25.3958 70.1669 24.3051 67.105 24.3051C64.7878 24.3051 62.5477 24.9157 60.57 26.0781L59.1283 24.712C61.2645 23.5013 63.7333 22.8087 66.3617 22.8087C67.1394 22.8087 67.9233 22.8707 68.692 22.9927C69.0341 23.0472 69.3822 22.948 69.6438 22.7223L73.3417 19.5316C73.9314 19.0229 74.3783 18.3888 74.6544 17.6814C75.6422 15.1519 75.6905 10.3768 73.8069 8.23352C68.6408 2.35428 60.9745 -0.539644 52.2214 0.0830745C50.0719 0.236263 48.8323 2.60275 49.9395 4.45705L50.4547 5.31967H48.0094C47.362 5.31967 46.8375 5.84244 46.8375 6.48726C46.8375 7.13209 47.362 7.65486 48.0094 7.65486H51.7872C52.3319 8.84721 52.5887 10.1425 52.5417 11.446C50.1909 9.36282 47.1652 8.20207 43.9439 8.20207C39.698 8.20207 35.7866 10.2334 33.352 13.6664H24.92C24.2569 13.6664 23.607 13.4385 23.09 13.0247L14.5156 6.1608C14.3075 5.99423 14.0486 5.90346 13.7817 5.90346H6.77094C4.82578 5.90346 3.24328 7.48019 3.24328 9.41824C3.24328 10.5471 3.79281 11.6143 4.71312 12.2731L7.23547 14.078C7.76062 14.454 8.49328 14.3346 8.87094 13.8107C9.24844 13.287 9.12828 12.5575 8.60266 12.1812L6.08047 10.3763C5.77141 10.1552 5.58703 9.79701 5.58703 9.41809C5.58703 8.76766 6.11812 8.2385 6.77094 8.2385H13.3692L21.6225 14.8452C22.5541 15.5909 23.7253 16.0016 24.9203 16.0016H33.7902L41.3789 18.8916L45.5558 20.4824C45.3383 20.5946 42.5217 23.0542 37.9453 23.0542H35.3719C32.795 23.0542 30.3484 24.434 29.0345 26.8028L27.0977 25.4166C27.0975 25.4165 27.0972 25.4163 27.0969 25.4162L11.7802 14.4551C11.2547 14.079 10.5223 14.1985 10.1447 14.7222C9.76719 15.2459 9.88734 15.9756 10.413 16.3517L24.3002 26.2899L21.7741 27.8381C19.3877 25.5821 16.2038 24.3048 12.8948 24.3048C5.78453 24.3049 0 30.0682 0 37.1524C0 44.2366 5.78453 50 12.8947 50C20.0048 50 25.7892 44.2366 25.7892 37.1524C25.7892 36.064 25.6495 34.9863 25.3767 33.9364L28.1506 32.2359V40.9896C28.1506 44.3269 30.8755 47.0418 34.2248 47.0418H39.8711V47.6648H32.2256C31.5783 47.6648 31.0538 48.1874 31.0538 48.8324C31.0538 49.4774 31.5783 50 32.2256 50H41.043C41.6903 50 42.2148 49.4774 42.2148 48.8324V47.0418H52.9672C53.3945 47.0418 53.788 46.81 53.9939 46.437C54.1998 46.064 54.1858 45.6086 53.957 45.249C52.4708 42.9132 51.6853 40.2101 51.6853 37.4317C51.6853 34.5504 52.5264 31.8615 53.9762 29.5948L55.6763 31.2056C54.7155 33.0356 54.2106 35.0725 54.2106 37.1522C54.2106 44.2364 59.9952 49.9998 67.1053 49.9998C74.2155 49.9998 80 44.2366 80 37.1524C80 34.8678 79.3873 32.6209 78.2283 30.6551ZM71.4255 37.1524C71.4255 39.5257 69.4875 41.4566 67.1055 41.4566C65.0241 41.4566 63.2819 39.9822 62.8752 38.0267L64.6584 39.7163C65.3214 40.3444 66.1905 40.6905 67.1052 40.6905C68.0736 40.6905 69.0116 40.2896 69.6789 39.5905C70.3327 38.9058 70.6794 38.0083 70.6556 37.0635C70.6317 36.1187 70.24 35.2397 69.5525 34.5887L67.7694 32.8991C69.8373 33.2182 71.4255 35.004 71.4255 37.1524ZM72.4327 10.3747C73.3159 12.3117 73.0441 15.6247 72.4153 16.9611C70.8344 16.6935 69.6269 15.319 69.6269 13.6688C69.6269 12.014 70.8409 10.6367 72.4327 10.3747ZM43.9444 10.5374C47.0602 10.5374 49.9542 11.8624 51.9775 14.1936C50.8013 17.2338 48.502 18.2828 47.8395 18.8521L38.0641 15.1293L35.8345 14.2803C37.8416 11.9139 40.78 10.5374 43.9444 10.5374ZM28.237 29.1073C28.2191 29.2199 28.2013 29.3435 28.1869 29.4721L17.7708 35.8574C17.767 35.8598 17.7633 35.8621 17.7594 35.8645L14.2519 38.0147C13.6819 38.3572 12.9381 38.1736 12.5945 37.6057C12.422 37.3207 12.3759 36.9867 12.4644 36.6657C12.5466 36.3668 12.7386 36.1143 13.0141 35.949L16.6905 33.6957C16.6938 33.6937 16.697 33.6916 16.7003 33.6898L22.1842 30.3288C22.1863 30.3276 22.1884 30.3262 22.1905 30.3249L26.3639 27.7671L28.237 29.1073ZM10.5873 38.8113C11.2528 39.9107 12.4267 40.5202 13.6323 40.5202C14.2592 40.5202 14.8945 40.3553 15.4712 40.009L16.6411 39.2917C15.8948 40.5842 14.4956 41.4569 12.8947 41.4569C10.5127 41.4569 8.57469 39.526 8.57469 37.1527C8.57469 34.7794 10.5127 32.8485 12.8947 32.8485C13.1069 32.8485 13.3167 32.8651 13.5234 32.8952L11.795 33.9546C11.0114 34.425 10.4464 35.1684 10.2041 36.0475C9.94781 36.9776 10.0875 37.985 10.5873 38.8113ZM23.4456 37.1524C23.4456 42.949 18.7125 47.6648 12.8948 47.6648C7.07687 47.665 2.34375 42.9491 2.34375 37.1524C2.34375 31.356 7.07687 26.6401 12.8947 26.6401C15.3905 26.6401 17.7977 27.5309 19.6889 29.1161L16.0861 31.3242C15.1109 30.7916 14.0217 30.513 12.8947 30.513C9.22016 30.513 6.23094 33.4914 6.23094 37.1524C6.23094 40.8133 9.22031 43.7918 12.8947 43.7918C16.4491 43.7918 19.3619 41.0048 19.5486 37.5091L23.2655 35.2305C23.3839 35.8632 23.4456 36.5054 23.4456 37.1524ZM50.9842 44.7067H34.2248C32.1678 44.7067 30.4944 43.0393 30.4944 40.9897V30.2492C30.4944 27.8214 32.2889 25.8298 34.5764 25.4554C36.6659 25.1082 41.3534 26.3557 46.5772 22.6266C50.272 19.9884 53.6247 18.3043 54.6631 13.3576C55.0656 11.4404 54.9344 9.47631 54.3067 7.65517H55.695C56.3423 7.65517 56.8669 7.1324 56.8669 6.48757C56.8669 5.84275 56.3423 5.31998 55.695 5.31998H53.1822L51.9542 3.2633C51.7425 2.90881 51.9706 2.4424 52.3889 2.41251C59.6922 1.89238 66.143 4.02441 70.765 8.44042C68.7209 9.30273 67.2833 11.3217 67.2833 13.6689C67.2833 15.9479 68.6394 17.9162 70.5892 18.818L68.5137 20.6088C67.8003 20.519 67.0789 20.4735 66.3622 20.4735C56.9869 20.4735 49.3416 28.0604 49.3416 37.432C49.3416 39.965 49.9052 42.4449 50.9842 44.7067ZM57.1484 26.0584L59.6184 28.3987C59.6195 28.3996 59.6205 28.4007 59.6216 28.4016L67.9373 36.2809C68.1711 36.5023 68.3042 36.8012 68.3123 37.1222C68.3205 37.4434 68.2025 37.7485 67.9803 37.9815C67.75 38.2227 67.4392 38.3555 67.1048 38.3555C66.7939 38.3555 66.4986 38.2378 66.2731 38.0244L57.9591 30.1467C57.9566 30.1442 57.9541 30.1418 57.9514 30.1395L55.3989 27.721C55.9356 27.1204 56.5208 26.5642 57.1484 26.0584Z" fill="black"/>
<path d="M40.0005 38.1881H36.6348C35.9874 38.1881 35.4629 38.7107 35.4629 39.3557C35.4629 40.0007 35.9874 40.5233 36.6348 40.5233H40.0005C40.6479 40.5233 41.1724 40.0007 41.1724 39.3557C41.1724 38.7107 40.6479 38.1881 40.0005 38.1881Z" fill="black"/>
</svg>
