<svg width="27" height="25" viewBox="0 0 27 25" fill="none" xmlns="http://www.w3.org/2000/svg">
<path d="M14.9689 0C10.9019 0 7.30227 2.00841 5.12343 5.07329C5.57436 5.36429 6.0139 5.76335 6.43902 6.27635C8.06449 3.87211 10.6927 2.18529 13.7336 1.82268L14.9688 3.89026L16.2039 1.82263C20.8783 2.37989 24.5938 6.05509 25.1574 10.6789L23.0669 11.9009L25.1574 13.123C24.7807 16.2143 22.9909 18.8758 20.4518 20.4709C20.6135 20.8356 20.7046 21.2085 20.7207 21.593C20.7326 21.874 20.7033 22.1394 20.6444 22.3915C24.4239 20.3826 27 16.4344 27 11.9011C27 5.33867 21.603 0 14.9689 0ZM18.0391 19.6C15.2657 17.3951 14.4901 18.479 13.2317 19.7236C12.3532 20.593 10.1299 18.7775 8.21021 16.8785C6.29039 14.9792 4.45549 12.7803 5.33396 11.9111C6.59246 10.6664 7.68781 9.89879 5.45824 7.15602C3.22942 4.41226 1.74362 6.51873 0.524609 7.72467C-0.882743 9.11634 0.450448 14.3025 5.63206 19.429C10.8144 24.5547 16.0571 25.8726 17.4637 24.4815C18.6825 23.2755 20.8126 21.8059 18.0391 19.6ZM9.59233 13.7636C9.59233 11.3249 12.4785 10.8905 12.4785 9.93885C12.4785 9.47708 12.1048 9.28323 11.7592 9.28323C11.124 9.28323 10.7695 9.98511 10.7695 9.98511L9.55531 9.18146C9.55531 9.18146 10.1718 7.75875 11.9088 7.75875C13.0014 7.75875 14.1875 8.3778 14.1875 9.78196C14.1875 11.8422 11.4977 12.2396 11.451 13.0895H14.2904V14.4751H9.6672C9.62039 14.2165 9.59233 13.9857 9.59233 13.7636ZM14.9731 11.8977L17.5511 7.86943H19.5497V11.5373H20.3434V12.8767H19.5497V14.4752H17.9337V12.8767H14.9732V11.8977H14.9731ZM17.9337 11.5373V10.0591C17.9337 9.69874 17.9898 9.31984 17.9898 9.31984H17.9711C17.9711 9.31984 17.8312 9.72649 17.6442 10.0037L16.6358 11.5189V11.5374L17.9337 11.5373Z" fill="white"/>
</svg>
