<svg width="120" height="120" viewBox="0 0 120 120" fill="none" xmlns="http://www.w3.org/2000/svg">
<path d="M93.3184 87.0494C89.5839 87.0494 86.5457 90.0862 86.5457 93.8191C86.5457 97.5487 89.5839 100.582 93.3184 100.582C97.0492 100.582 100.084 97.5485 100.084 93.8191C100.084 90.0862 97.0492 87.0494 93.3184 87.0494ZM93.3184 97.0406C91.5371 97.0406 90.088 95.5954 90.088 93.8193C90.088 92.0395 91.5371 90.5915 93.3184 90.5915C95.0959 90.5915 96.5422 92.0395 96.5422 93.8193C96.542 95.5952 95.0959 97.0406 93.3184 97.0406Z" fill="black"/>
<path d="M30.8567 87.0494C27.1257 87.0494 24.0906 90.0862 24.0906 93.8191C24.0906 97.5487 27.1257 100.582 30.8567 100.582C34.5913 100.582 37.6295 97.5485 37.6295 93.8191C37.6295 90.0862 34.5913 87.0494 30.8567 87.0494ZM30.8567 97.0406C29.0792 97.0406 27.6327 95.5954 27.6327 93.8193C27.6327 92.0395 29.079 90.5915 30.8567 90.5915C32.638 90.5915 34.0871 92.0395 34.0871 93.8193C34.0871 95.5952 32.638 97.0406 30.8567 97.0406Z" fill="black"/>
<path d="M115.463 83.3625V68.0086C115.463 63.2993 112.432 60.0105 108.093 60.0105H106.246C104.765 60.0105 104.247 59.3214 102.832 57.1434C102.625 56.8242 102.408 56.4911 102.176 56.1452L95.329 45.9768C95.2073 45.7957 95.0885 45.6164 94.9711 45.4401C93.1603 42.7141 91.2881 39.8957 85.8747 39.8957H73.6774V32.5786C73.6774 29.5631 71.2261 27.1099 68.2132 27.1099H68.2066C65.1937 27.1099 62.7424 29.5631 62.7424 32.5786V47.5697H54.8494L41.0602 33.8582C40.3666 33.1687 39.2452 33.1715 38.5552 33.8653C37.8654 34.5588 37.8687 35.6803 38.5622 36.37L49.8253 47.5694H47.9878C46.4135 47.5694 44.9452 48.0286 43.7065 48.817L16.3948 21.6672C16.3941 21.6665 16.3934 21.6658 16.3927 21.6654L15.1692 20.4492C14.1195 19.4041 13.6826 18.1823 13.9709 17.0967C14.186 16.2862 14.7884 15.656 15.543 15.4521C16.5457 15.1797 17.7171 15.6471 18.8414 16.7664L32.5709 30.4155C33.2641 31.1053 34.3859 31.102 35.0756 30.4082C35.7654 29.7147 35.7621 28.5932 35.0684 27.9037L21.3401 14.2556C19.312 12.2362 16.8621 11.4264 14.6187 12.0325C12.6462 12.5657 11.0859 14.1581 10.5471 16.1875C9.92508 18.5294 10.699 20.9979 12.6708 22.9603L13.3711 23.6566L13.3823 36.5446C10.7461 37.3132 8.8139 39.749 8.8139 42.6293C8.8139 45.5067 10.7468 47.9402 13.3835 48.7078V55.548C13.3835 57.6593 11.217 57.7202 10.9702 57.7202C10.7234 57.7202 8.5568 57.6593 8.5568 55.548V52.7001C8.5568 51.7218 7.76391 50.9292 6.78562 50.9292C5.80734 50.9292 5.01445 51.7221 5.01445 52.7001V55.548C5.01445 59.2997 8.01047 61.2625 10.9702 61.2625C13.9298 61.2625 16.9259 59.2997 16.9259 55.548V48.7078C19.5628 47.9404 21.4957 45.5069 21.4957 42.6293C21.4957 39.7481 19.5621 37.3115 16.9244 36.5439L16.9162 27.1811L41.2092 51.3304C40.4393 52.5583 39.9923 54.0084 39.9923 55.5614V66.1781H7.54312C5.68383 66.1781 4.17141 67.69 4.17141 69.5491V83.4548C1.76484 84.1523 0 86.3763 0 89.0064C0 92.1904 2.59125 94.7807 5.77641 94.7807H16.5352C17.0323 102.243 23.2641 108.164 30.8573 108.164C38.4506 108.164 44.6824 102.243 45.1795 94.7807H58.5485C59.5268 94.7807 60.3197 93.9879 60.3197 93.0098C60.3197 92.0315 59.5268 91.2389 58.5485 91.2389H44.9782C44.6866 89.6411 44.1302 88.1353 43.3549 86.7679H80.8223C80.047 88.1353 79.4908 89.6409 79.1991 91.2389H66.6649C65.6866 91.2389 64.8937 92.0318 64.8937 93.0098C64.8937 93.9881 65.6866 94.7807 66.6649 94.7807H78.9977C79.4948 102.243 85.7266 108.164 93.3199 108.164C100.913 108.164 107.145 102.243 107.642 94.7807H114.216C117.405 94.7807 119.999 92.1904 119.999 89.0064C120 86.2467 118.055 83.9339 115.463 83.3625ZM17.9541 42.6293C17.9541 44.1675 16.6985 45.4188 15.1552 45.4188C13.6123 45.4188 12.3565 44.1675 12.3565 42.6293C12.3565 41.0875 13.612 39.8329 15.1552 39.8329C16.6983 39.8329 17.9541 41.0875 17.9541 42.6293ZM111.921 75.7373H106.698C106.326 75.7373 106.011 75.4265 106.011 75.0586V73.2065C106.011 72.8386 106.326 72.5278 106.698 72.5278H111.921V75.7373ZM85.8747 43.4379C89.3885 43.4379 90.3234 44.8453 92.0205 47.4002C92.141 47.5814 92.2631 47.7654 92.3894 47.9536L99.2367 58.1224C99.4575 58.4507 99.6637 58.7686 99.8615 59.073C101.358 61.3767 102.771 63.5526 106.247 63.5526H108.093C110.916 63.5526 111.921 65.8544 111.921 68.0086V68.9859H106.698C104.366 68.9859 102.469 70.8794 102.469 73.2068V75.0588C102.469 77.3861 104.366 79.2797 106.698 79.2797H111.921V83.2258H102.996C100.442 80.8933 97.0448 79.4683 93.3208 79.4683C89.5969 79.4683 86.1998 80.8933 83.6459 83.2258H73.6777V67.949V43.4379H85.8747ZM66.2845 32.5786C66.2845 31.5342 67.1646 30.652 68.2064 30.652H68.213C69.2545 30.652 70.1348 31.5344 70.1348 32.5786V66.1779H66.2843V49.3408V32.5786H66.2845ZM43.5349 55.5611C43.5349 54.3675 44.0102 53.2846 44.7785 52.4847C44.7966 52.4679 44.8155 52.4526 44.8331 52.435C44.8537 52.4144 44.8716 52.3922 44.8908 52.3708C45.6928 51.5932 46.7843 51.1118 47.9876 51.1118H62.7422V66.1779H43.5349V55.5611ZM41.764 69.72H64.5136H70.1353V83.2256H40.5326C37.9784 80.8931 34.5816 79.4681 30.8576 79.4681C27.1336 79.4681 23.7366 80.8931 21.1826 83.2256H7.71351V69.72H41.764ZM3.54234 89.0064C3.54234 87.772 4.54453 86.7677 5.77641 86.7677H18.3595C17.5842 88.135 17.028 89.6407 16.7362 91.2386H5.77641C4.54453 91.2386 3.54234 90.2374 3.54234 89.0064ZM30.8573 104.622C24.8937 104.622 20.0414 99.7757 20.0414 93.8193C20.0414 87.8594 24.8934 83.0102 30.8573 83.0102C36.8212 83.0102 41.6733 87.8592 41.6733 93.8193C41.6733 99.7757 36.8212 104.622 30.8573 104.622ZM93.3206 104.622C87.3569 104.622 82.5047 99.7757 82.5047 93.8193C82.5047 87.8594 87.3567 83.0102 93.3206 83.0102C99.2845 83.0102 104.137 87.8592 104.137 93.8193C104.136 99.7757 99.2843 104.622 93.3206 104.622ZM114.217 91.2386H107.442C107.15 89.6409 106.594 88.135 105.818 86.7677H114.217C115.452 86.7677 116.458 87.772 116.458 89.0064C116.458 90.2374 115.452 91.2386 114.217 91.2386Z" fill="black"/>
<path d="M80.9829 62.1782H92.5538C92.5702 62.1782 92.5866 62.1779 92.603 62.1775C93.807 62.144 94.7501 61.2149 94.7501 60.062V59.5907C94.7501 58.8243 94.5589 58.2062 94.1206 57.5737L88.5036 49.6145C87.5553 48.2831 86.3789 47.6894 84.6893 47.6894H79.4154C78.211 47.6894 77.2097 48.5805 77.1366 49.7181C77.134 49.7568 77.1326 49.796 77.1328 49.8349L77.1462 58.6682C77.146 60.6034 78.867 62.1782 80.9829 62.1782ZM84.6893 51.2313C85.306 51.2313 85.3721 51.3241 85.6135 51.663L90.5344 58.6358H80.9829C80.8242 58.6358 80.7319 58.5981 80.6883 58.5688L80.6773 51.231H84.6893V51.2313Z" fill="black"/>
</svg>
